G04 Layer_Color=128*
%FSLAX45Y45*%
%MOMM*%
%TF.FileFunction,Drillmap*%
%TF.Part,Single*%
G01*
G75*
%TA.AperFunction,NonConductor*%
%ADD23C,0.12700*%
D23*
X237003Y5699999D02*
X563002D01*
X400002Y5536999D02*
Y5862998D01*
X2536998Y399999D02*
X2862997D01*
X2699998Y237000D02*
Y562999D01*
X1324698Y5397602D02*
X1414698D01*
X1369698Y5352602D02*
Y5442602D01*
X1324698Y5651602D02*
X1414698D01*
X1369698Y5606602D02*
Y5696602D01*
X1324698Y5905602D02*
X1414698D01*
X1369698Y5860602D02*
Y5950602D01*
X955001Y5391998D02*
X1045001D01*
X1000001Y5346998D02*
Y5436998D01*
X955001Y5645998D02*
X1045001D01*
X1000001Y5600998D02*
Y5690998D01*
X955001Y5899998D02*
X1045001D01*
X1000001Y5854998D02*
Y5944998D01*
X2353499Y1843400D02*
X2462499D01*
X2407999Y1788900D02*
Y1897900D01*
X2637502Y1981449D02*
X2746502D01*
X2692002Y1926949D02*
Y2035949D01*
X2353499Y2119498D02*
X2462499D01*
X2407999Y2064998D02*
Y2173998D01*
X2637502Y2257547D02*
X2746502D01*
X2692002Y2203047D02*
Y2312047D01*
X2353499Y2395596D02*
X2462499D01*
X2407999Y2341096D02*
Y2450096D01*
X2637502Y2533650D02*
X2746502D01*
X2692002Y2479150D02*
Y2588150D01*
X2353499Y2671699D02*
X2462499D01*
X2407999Y2617199D02*
Y2726199D01*
X2637502Y2809748D02*
X2746502D01*
X2692002Y2755248D02*
Y2864248D01*
X2353499Y2947797D02*
X2462499D01*
X2407999Y2893297D02*
Y3002297D01*
X2637502Y3085846D02*
X2746502D01*
X2692002Y3031346D02*
Y3140346D01*
X2353499Y3223900D02*
X2462499D01*
X2407999Y3169400D02*
Y3278400D01*
X2637502Y3361949D02*
X2746502D01*
X2692002Y3307449D02*
Y3416449D01*
X2353499Y3499998D02*
X2462499D01*
X2407999Y3445498D02*
Y3554498D01*
X2637502Y3638047D02*
X2746502D01*
X2692002Y3583547D02*
Y3692547D01*
X2353499Y3776096D02*
X2462499D01*
X2407999Y3721596D02*
Y3830596D01*
X2637502Y3914150D02*
X2746502D01*
X2692002Y3859650D02*
Y3968650D01*
X2353499Y4052199D02*
X2462499D01*
X2407999Y3997699D02*
Y4106699D01*
X2637502Y4190248D02*
X2746502D01*
X2692002Y4135748D02*
Y4244748D01*
X2353499Y4328297D02*
X2462499D01*
X2407999Y4273797D02*
Y4382797D01*
X2637502Y4466346D02*
X2746502D01*
X2692002Y4411846D02*
Y4520846D01*
X2353499Y4604400D02*
X2462499D01*
X2407999Y4549900D02*
Y4658900D01*
X2637502Y4742449D02*
X2746502D01*
X2692002Y4687949D02*
Y4796949D01*
X2353499Y4880498D02*
X2462499D01*
X2407999Y4825998D02*
Y4934998D01*
X2637502Y5018547D02*
X2746502D01*
X2692002Y4964047D02*
Y5073047D01*
X2353499Y5156596D02*
X2462499D01*
X2407999Y5102096D02*
Y5211096D01*
X2387001Y5852597D02*
X2713000D01*
X2550000Y5689597D02*
Y6015597D01*
X2387001Y1147399D02*
X2713000D01*
X2550000Y984399D02*
Y1310399D01*
X1713004Y4899000D02*
X1832994D01*
X1772999Y4839005D02*
Y4958994D01*
X189004Y4899000D02*
X308994D01*
X248999Y4839005D02*
Y4958994D01*
X189004Y327000D02*
X308994D01*
X248999Y267005D02*
Y386994D01*
X1713004Y327000D02*
X1832994D01*
X1772999Y267005D02*
Y386994D01*
X1455499Y4264000D02*
X1557099D01*
X1506299Y4213200D02*
Y4314800D01*
X1201499Y4264000D02*
X1303099D01*
X1252299Y4213200D02*
Y4314800D01*
X1455499Y4518000D02*
X1557099D01*
X1506299Y4467200D02*
Y4568800D01*
X1201499Y4518000D02*
X1303099D01*
X1252299Y4467200D02*
Y4568800D01*
X1455499Y4772000D02*
X1557099D01*
X1506299Y4721200D02*
Y4822800D01*
X1201499Y4772000D02*
X1303099D01*
X1252299Y4721200D02*
Y4822800D01*
X198199Y2867000D02*
X299799D01*
X248999Y2816200D02*
Y2917800D01*
X198199Y3121000D02*
X299799D01*
X248999Y3070200D02*
Y3171800D01*
X198199Y4645000D02*
X299799D01*
X248999Y4594200D02*
Y4695800D01*
X198199Y4391000D02*
X299799D01*
X248999Y4340200D02*
Y4441800D01*
X198199Y4137000D02*
X299799D01*
X248999Y4086200D02*
Y4187800D01*
X198199Y3883000D02*
X299799D01*
X248999Y3832200D02*
Y3933800D01*
X198199Y3629000D02*
X299799D01*
X248999Y3578200D02*
Y3679800D01*
X198199Y3375000D02*
X299799D01*
X248999Y3324200D02*
Y3425800D01*
X198199Y581000D02*
X299799D01*
X248999Y530200D02*
Y631800D01*
X198199Y835000D02*
X299799D01*
X248999Y784200D02*
Y885800D01*
X198199Y1089000D02*
X299799D01*
X248999Y1038200D02*
Y1139800D01*
X198199Y2613000D02*
X299799D01*
X248999Y2562200D02*
Y2663800D01*
X198199Y2359000D02*
X299799D01*
X248999Y2308200D02*
Y2409800D01*
X198199Y2105000D02*
X299799D01*
X248999Y2054200D02*
Y2155800D01*
X198199Y1851000D02*
X299799D01*
X248999Y1800200D02*
Y1901800D01*
X198199Y1597000D02*
X299799D01*
X248999Y1546200D02*
Y1647800D01*
X198199Y1343000D02*
X299799D01*
X248999Y1292200D02*
Y1393800D01*
X1722199Y2867000D02*
X1823799D01*
X1772999Y2816200D02*
Y2917800D01*
X1722199Y3121000D02*
X1823799D01*
X1772999Y3070200D02*
Y3171800D01*
X1722199Y4645000D02*
X1823799D01*
X1772999Y4594200D02*
Y4695800D01*
X1722199Y4391000D02*
X1823799D01*
X1772999Y4340200D02*
Y4441800D01*
X1722199Y4137000D02*
X1823799D01*
X1772999Y4086200D02*
Y4187800D01*
X1722199Y3883000D02*
X1823799D01*
X1772999Y3832200D02*
Y3933800D01*
X1722199Y3629000D02*
X1823799D01*
X1772999Y3578200D02*
Y3679800D01*
X1722199Y3375000D02*
X1823799D01*
X1772999Y3324200D02*
Y3425800D01*
X1722199Y581000D02*
X1823799D01*
X1772999Y530200D02*
Y631800D01*
X1722199Y835000D02*
X1823799D01*
X1772999Y784200D02*
Y885800D01*
X1722199Y1089000D02*
X1823799D01*
X1772999Y1038200D02*
Y1139800D01*
X1722199Y2613000D02*
X1823799D01*
X1772999Y2562200D02*
Y2663800D01*
X1722199Y2359000D02*
X1823799D01*
X1772999Y2308200D02*
Y2409800D01*
X1722199Y2105000D02*
X1823799D01*
X1772999Y2054200D02*
Y2155800D01*
X1722199Y1851000D02*
X1823799D01*
X1772999Y1800200D02*
Y1901800D01*
X1722199Y1597000D02*
X1823799D01*
X1772999Y1546200D02*
Y1647800D01*
X1722199Y1343000D02*
X1823799D01*
X1772999Y1292200D02*
Y1393800D01*
X867001Y1489207D02*
X952001D01*
X909501Y1446707D02*
Y1531707D01*
X867001Y2251207D02*
X952001D01*
X909501Y2208707D02*
Y2293707D01*
X1108301Y1489207D02*
X1193301D01*
X1150801Y1446707D02*
Y1531707D01*
X1108301Y2251207D02*
X1193301D01*
X1150801Y2208707D02*
Y2293707D01*
X1807002Y5690001D02*
X2133001D01*
X1970002Y5527002D02*
Y5853001D01*
X917001Y970001D02*
X1243000D01*
X1080001Y807001D02*
Y1133000D01*
%TF.MD5,4afecb2638298618e6f958401899b047*%
M02*
