G04 Layer_Color=0*
%FSLAX45Y45*%
%MOMM*%
%TF.FileFunction,Plated,1,2,PTH,Drill*%
%TF.Part,Single*%
G01*
G75*
%TA.AperFunction,ComponentDrill*%
%ADD44C,0.90000*%
%ADD45C,1.09000*%
%ADD46C,3.26000*%
%ADD47C,1.19990*%
%ADD48C,1.01600*%
%ADD49C,1.01600*%
%ADD50C,0.85000*%
D44*
X1369698Y5397602D02*
D03*
Y5651602D02*
D03*
Y5905602D02*
D03*
X1000001Y5391998D02*
D03*
Y5645998D02*
D03*
Y5899998D02*
D03*
D45*
X2407999Y1843400D02*
D03*
X2692002Y1981449D02*
D03*
X2407999Y2119498D02*
D03*
X2692002Y2257547D02*
D03*
X2407999Y2395596D02*
D03*
X2692002Y2533650D02*
D03*
X2407999Y2671699D02*
D03*
X2692002Y2809748D02*
D03*
X2407999Y2947797D02*
D03*
X2692002Y3085846D02*
D03*
X2407999Y3223900D02*
D03*
X2692002Y3361949D02*
D03*
X2407999Y3499998D02*
D03*
X2692002Y3638047D02*
D03*
X2407999Y3776096D02*
D03*
X2692002Y3914150D02*
D03*
X2407999Y4052199D02*
D03*
X2692002Y4190248D02*
D03*
X2407999Y4328297D02*
D03*
X2692002Y4466346D02*
D03*
X2407999Y4604400D02*
D03*
X2692002Y4742449D02*
D03*
X2407999Y4880498D02*
D03*
X2692002Y5018547D02*
D03*
X2407999Y5156596D02*
D03*
D46*
X2550000Y5852597D02*
D03*
Y1147399D02*
D03*
D47*
X1772999Y4899000D02*
D03*
X248999D02*
D03*
Y327000D02*
D03*
X1772999D02*
D03*
D48*
X1506299Y4264000D02*
D03*
X1252299D02*
D03*
X1506299Y4518000D02*
D03*
X1252299D02*
D03*
X1506299Y4772000D02*
D03*
X1252299D02*
D03*
D49*
X248999Y2867000D02*
D03*
Y3121000D02*
D03*
Y4645000D02*
D03*
Y4391000D02*
D03*
Y4137000D02*
D03*
Y3883000D02*
D03*
Y3629000D02*
D03*
Y3375000D02*
D03*
Y581000D02*
D03*
Y835000D02*
D03*
Y1089000D02*
D03*
Y2613000D02*
D03*
Y2359000D02*
D03*
Y2105000D02*
D03*
Y1851000D02*
D03*
Y1597000D02*
D03*
Y1343000D02*
D03*
X1772999Y2867000D02*
D03*
Y3121000D02*
D03*
Y4645000D02*
D03*
Y4391000D02*
D03*
Y4137000D02*
D03*
Y3883000D02*
D03*
Y3629000D02*
D03*
Y3375000D02*
D03*
Y581000D02*
D03*
Y835000D02*
D03*
Y1089000D02*
D03*
Y2613000D02*
D03*
Y2359000D02*
D03*
Y2105000D02*
D03*
Y1851000D02*
D03*
Y1597000D02*
D03*
Y1343000D02*
D03*
D50*
X909501Y1489207D02*
D03*
Y2251207D02*
D03*
X1150801Y1489207D02*
D03*
Y2251207D02*
D03*
%TF.MD5,784575d77237188b88e897629bc0e525*%
M02*
