G04 Layer_Color=65535*
%FSLAX45Y45*%
%MOMM*%
%TF.FileFunction,Legend,Top*%
%TF.Part,Single*%
G01*
G75*
%TA.AperFunction,NonConductor*%
%ADD22C,0.20000*%
%ADD23C,0.12700*%
%ADD24C,0.15240*%
%ADD25C,0.25400*%
%ADD26C,0.15000*%
D22*
X4100000Y5414601D02*
G03*
X4030500Y5484101I-69500J0D01*
G01*
X3570000Y1504601D02*
G03*
X3500500Y1435101I0J-69500D01*
G01*
Y5554101D02*
G03*
X3570000Y5484601I69500J0D01*
G01*
X4030500Y1505101D02*
G03*
X4100000Y1574601I0J69500D01*
G01*
X1496698Y5270602D02*
Y6032602D01*
X1242698D02*
X1496698D01*
X1242698Y5270602D02*
Y6032602D01*
Y5270602D02*
X1496698D01*
X1127001Y5264998D02*
Y6026998D01*
X873001D02*
X1127001D01*
X873001Y5264998D02*
Y6026998D01*
Y5264998D02*
X1127001D01*
X3200002Y839597D02*
Y6149599D01*
X3570004Y5484597D02*
X4030003D01*
X3570004Y1504599D02*
X4030003D01*
X4100000Y1574597D02*
Y5414599D01*
X2250001Y5294600D02*
X3200002D01*
X3500001Y839597D02*
Y6149599D01*
X2250001Y1694597D02*
X3200002D01*
X2250001Y839597D02*
Y6149599D01*
X3500001D01*
X2250001Y839597D02*
X3500001D01*
X909501Y1616207D02*
X985701D01*
Y2124207D01*
X833301D02*
X985701D01*
X833301Y1616207D02*
Y2124207D01*
Y1616207D02*
X909501D01*
Y2124207D02*
Y2147067D01*
Y1593347D02*
Y1616207D01*
X1150801D02*
X1227001D01*
Y2124207D01*
X1074601D02*
X1227001D01*
X1074601Y1616207D02*
Y2124207D01*
Y1616207D02*
X1150801D01*
Y2124207D02*
Y2147067D01*
Y1593347D02*
Y1616207D01*
D23*
X1658701Y4111600D02*
G03*
X1658701Y4111600I-12700J0D01*
G01*
X1696799Y4708500D02*
Y4848200D01*
X1620599Y4924400D02*
X1696799Y4848200D01*
X663019Y116180D02*
X1369139D01*
X663019D02*
Y624180D01*
X1369139D01*
Y116180D02*
Y624180D01*
D24*
X1188799Y4899000D02*
X1569799D01*
X1125299Y4708500D02*
Y4835500D01*
Y4454500D02*
Y4581500D01*
Y4200500D02*
Y4327500D01*
X1188799Y4137000D02*
X1569799D01*
X1188799Y4391000D02*
X1569799D01*
X1188799Y4645000D02*
X1569799D01*
Y4137000D02*
X1633299Y4200500D01*
Y4327500D01*
X1569799Y4391000D02*
X1633299Y4327500D01*
X1569799Y4391000D02*
X1633299Y4454500D01*
Y4581500D01*
X1569799Y4645000D02*
X1633299Y4581500D01*
X1569799Y4645000D02*
X1633299Y4708500D01*
Y4835500D01*
X1569799Y4899000D02*
X1633299Y4835500D01*
X1125299Y4200500D02*
X1188799Y4137000D01*
X1125299Y4327500D02*
X1188799Y4391000D01*
X1125299Y4454500D02*
X1188799Y4391000D01*
X1125299Y4581500D02*
X1188799Y4645000D01*
X1125299Y4708500D02*
X1188799Y4645000D01*
X1125299Y4835500D02*
X1188799Y4899000D01*
D25*
X683679Y4185400D02*
X617034D01*
X583711Y4218723D01*
X617034Y4252045D01*
X683679D01*
X633695D01*
Y4185400D01*
X683679Y4285368D02*
X583711D01*
Y4335352D01*
X600372Y4352013D01*
X633695D01*
X650356Y4335352D01*
Y4285368D01*
Y4318690D02*
X683679Y4352013D01*
X583711Y4385336D02*
X683679D01*
Y4435320D01*
X667017Y4451981D01*
X600372D01*
X583711Y4435320D01*
Y4385336D01*
Y4485303D02*
X667017D01*
X683679Y4501965D01*
Y4535287D01*
X667017Y4551948D01*
X583711D01*
Y4585271D02*
Y4618594D01*
Y4601933D01*
X683679D01*
Y4585271D01*
Y4618594D01*
Y4668578D02*
X583711D01*
X683679Y4735223D01*
X583711D01*
Y4818529D02*
Y4785207D01*
X600372Y4768545D01*
X667017D01*
X683679Y4785207D01*
Y4818529D01*
X667017Y4835190D01*
X600372D01*
X583711Y4818529D01*
X864600Y4285368D02*
X764632D01*
X797955Y4318690D01*
X764632Y4352013D01*
X864600D01*
X764632Y4385336D02*
Y4418658D01*
Y4401997D01*
X864600D01*
Y4385336D01*
Y4418658D01*
X781294Y4535287D02*
X764632Y4518626D01*
Y4485303D01*
X781294Y4468642D01*
X847939D01*
X864600Y4485303D01*
Y4518626D01*
X847939Y4535287D01*
X864600Y4568610D02*
X764632D01*
Y4618594D01*
X781294Y4635255D01*
X814616D01*
X831277Y4618594D01*
Y4568610D01*
Y4601932D02*
X864600Y4635255D01*
X764632Y4718562D02*
Y4685239D01*
X781294Y4668578D01*
X847939D01*
X864600Y4685239D01*
Y4718562D01*
X847939Y4735223D01*
X781294D01*
X764632Y4718562D01*
X1300000Y1930001D02*
Y2029969D01*
X1349984D01*
X1366645Y2013307D01*
Y1979985D01*
X1349984Y1963323D01*
X1300000D01*
X1333323D02*
X1366645Y1930001D01*
X1466613D02*
X1399968D01*
X1466613Y1996646D01*
Y2013307D01*
X1449952Y2029969D01*
X1416629D01*
X1399968Y2013307D01*
X630001Y1930000D02*
Y2029968D01*
X679984D01*
X696646Y2013307D01*
Y1979984D01*
X679984Y1963323D01*
X630001D01*
X663323D02*
X696646Y1930000D01*
X729968D02*
X763291D01*
X746630D01*
Y2029968D01*
X729968Y2013307D01*
X2969745Y5758968D02*
X2936422D01*
X2953084D01*
Y5675661D01*
X2936422Y5659000D01*
X2919761D01*
X2903100Y5675661D01*
X3003068Y5659000D02*
X3036390D01*
X3019729D01*
Y5758968D01*
X3003068Y5742307D01*
X1290000Y1730001D02*
X1323323D01*
X1306662D01*
Y1829969D01*
X1290000Y1813307D01*
X1373307D02*
X1389968Y1829969D01*
X1423291D01*
X1439952Y1813307D01*
Y1746662D01*
X1423291Y1730001D01*
X1389968D01*
X1373307Y1746662D01*
Y1813307D01*
X1473274Y1730001D02*
Y1829969D01*
Y1763323D02*
X1523258Y1796646D01*
X1473274Y1763323D02*
X1523258Y1730001D01*
X530001Y1730001D02*
X563323D01*
X546662D01*
Y1829968D01*
X530001Y1813307D01*
X613307D02*
X629969Y1829968D01*
X663291D01*
X679952Y1813307D01*
Y1746662D01*
X663291Y1730001D01*
X629969D01*
X613307Y1746662D01*
Y1813307D01*
X713275Y1730001D02*
Y1829968D01*
Y1763323D02*
X763259Y1796646D01*
X713275Y1763323D02*
X763259Y1730001D01*
X1510000Y5699968D02*
Y5600000D01*
X1559984D01*
X1576645Y5616661D01*
Y5683306D01*
X1559984Y5699968D01*
X1510000D01*
X1609968D02*
X1676613D01*
Y5683306D01*
X1609968Y5616661D01*
Y5600000D01*
X720000Y5699968D02*
Y5600000D01*
X769984D01*
X786645Y5616661D01*
Y5683306D01*
X769984Y5699968D01*
X720000D01*
X886613D02*
X853290Y5683306D01*
X819968Y5649984D01*
Y5616661D01*
X836629Y5600000D01*
X869952D01*
X886613Y5616661D01*
Y5633322D01*
X869952Y5649984D01*
X819968D01*
X1166645Y6119968D02*
X1100000D01*
Y6069984D01*
X1133323Y6086645D01*
X1149984D01*
X1166645Y6069984D01*
Y6036661D01*
X1149984Y6020000D01*
X1116661D01*
X1100000Y6036661D01*
X1199968Y6119968D02*
Y6053322D01*
X1233290Y6020000D01*
X1266613Y6053322D01*
Y6119968D01*
X1116645Y5233307D02*
X1099984Y5249968D01*
X1066661D01*
X1050000Y5233307D01*
Y5166661D01*
X1066661Y5150000D01*
X1099984D01*
X1116645Y5166661D01*
Y5199984D01*
X1083322D01*
X1149968Y5150000D02*
Y5249968D01*
X1216613Y5150000D01*
Y5249968D01*
X1249936D02*
Y5150000D01*
X1299919D01*
X1316581Y5166661D01*
Y5233307D01*
X1299919Y5249968D01*
X1249936D01*
X900000Y299967D02*
Y216661D01*
X916662Y200000D01*
X949984D01*
X966646Y216661D01*
Y299967D01*
X1066613Y283306D02*
X1049952Y299967D01*
X1016630D01*
X999968Y283306D01*
Y266645D01*
X1016630Y249983D01*
X1049952D01*
X1066613Y233322D01*
Y216661D01*
X1049952Y200000D01*
X1016630D01*
X999968Y216661D01*
X1099936Y299967D02*
Y200000D01*
X1149920D01*
X1166581Y216661D01*
Y233322D01*
X1149920Y249983D01*
X1099936D01*
X1149920D01*
X1166581Y266645D01*
Y283306D01*
X1149920Y299967D01*
X1099936D01*
D26*
X2052500Y5181599D02*
Y5148277D01*
Y5164938D01*
X2152468D01*
X2135806Y5181599D01*
X2052500Y1955900D02*
Y1922577D01*
Y1939238D01*
X2152468D01*
X2135806Y1955900D01*
Y1872593D02*
X2152468Y1855932D01*
Y1822609D01*
X2135806Y1805948D01*
X2119145D01*
X2102484Y1822609D01*
Y1839271D01*
Y1822609D01*
X2085822Y1805948D01*
X2069161D01*
X2052500Y1822609D01*
Y1855932D01*
X2069161Y1872593D01*
X3002500Y5131050D02*
Y5097727D01*
Y5114388D01*
X3102468D01*
X3085806Y5131050D01*
X3002500Y4997759D02*
X3102468D01*
X3052484Y5047743D01*
Y4981098D01*
X3002500Y2039804D02*
Y2106449D01*
X3069145Y2039804D01*
X3085806D01*
X3102468Y2056466D01*
Y2089788D01*
X3085806Y2106449D01*
X3102468Y1939837D02*
Y2006482D01*
X3052484D01*
X3069145Y1973159D01*
Y1956498D01*
X3052484Y1939837D01*
X3019161D01*
X3002500Y1956498D01*
Y1989820D01*
X3019161Y2006482D01*
%TF.MD5,993d05e658f6a0f595dee54354347487*%
M02*
