G04 Layer_Color=255*
%FSLAX45Y45*%
%MOMM*%
%TF.FileFunction,Pads,Bot*%
%TF.Part,Single*%
G01*
G75*
%TA.AperFunction,WasherPad*%
%ADD12C,3.25999*%
%TA.AperFunction,ComponentPad*%
%ADD13R,1.50000X1.50000*%
%ADD14C,1.50000*%
%ADD15C,1.69000*%
%ADD16R,1.69000X1.69000*%
%ADD17C,4.76000*%
%ADD18C,1.19990*%
G04:AMPARAMS|DCode=19|XSize=1.5748mm|YSize=1.5748mm|CornerRadius=0mm|HoleSize=0mm|Usage=FLASHONLY|Rotation=270.000|XOffset=0mm|YOffset=0mm|HoleType=Round|Shape=Octagon|*
%AMOCTAGOND19*
4,1,8,-0.39370,-0.78740,0.39370,-0.78740,0.78740,-0.39370,0.78740,0.39370,0.39370,0.78740,-0.39370,0.78740,-0.78740,0.39370,-0.78740,-0.39370,-0.39370,-0.78740,0.0*
%
%ADD19OCTAGOND19*%

%ADD20C,1.57480*%
%ADD21C,1.40000*%
D12*
X400002Y5699999D02*
D03*
X2699998Y399999D02*
D03*
X1970002Y5690001D02*
D03*
X1080001Y970001D02*
D03*
D13*
X1369698Y5397602D02*
D03*
X1000001Y5391998D02*
D03*
D14*
X1369698Y5651602D02*
D03*
Y5905602D02*
D03*
X1000001Y5645998D02*
D03*
Y5899998D02*
D03*
D15*
X2407999Y1843400D02*
D03*
Y2119498D02*
D03*
Y2395596D02*
D03*
Y2671699D02*
D03*
Y2947797D02*
D03*
Y3223900D02*
D03*
Y3499998D02*
D03*
Y3776096D02*
D03*
X2692002Y3914150D02*
D03*
X2407999Y4052199D02*
D03*
X2692002Y4190248D02*
D03*
X2407999Y4328297D02*
D03*
X2692002Y4466346D02*
D03*
X2407999Y4604400D02*
D03*
X2692002Y4742449D02*
D03*
X2407999Y4880498D02*
D03*
X2692002Y5018547D02*
D03*
X2407999Y5156596D02*
D03*
D16*
X2692002Y1981449D02*
D03*
Y2257547D02*
D03*
Y2533650D02*
D03*
Y2809748D02*
D03*
Y3085846D02*
D03*
Y3361949D02*
D03*
Y3638047D02*
D03*
D17*
X2550000Y5852597D02*
D03*
Y1147399D02*
D03*
D18*
X1772999Y4899000D02*
D03*
X248999D02*
D03*
Y327000D02*
D03*
X1772999D02*
D03*
D19*
X1506299Y4264000D02*
D03*
X1252299D02*
D03*
X1506299Y4518000D02*
D03*
X1252299D02*
D03*
X1506299Y4772000D02*
D03*
X1252299D02*
D03*
D20*
X248999Y2867000D02*
D03*
Y3121000D02*
D03*
Y4645000D02*
D03*
Y4391000D02*
D03*
Y4137000D02*
D03*
Y3883000D02*
D03*
Y3629000D02*
D03*
Y3375000D02*
D03*
Y581000D02*
D03*
Y835000D02*
D03*
Y1089000D02*
D03*
Y2613000D02*
D03*
Y2359000D02*
D03*
Y2105000D02*
D03*
Y1851000D02*
D03*
Y1597000D02*
D03*
Y1343000D02*
D03*
X1772999Y2867000D02*
D03*
Y3121000D02*
D03*
Y4645000D02*
D03*
Y4391000D02*
D03*
Y4137000D02*
D03*
Y3883000D02*
D03*
Y3629000D02*
D03*
Y3375000D02*
D03*
Y581000D02*
D03*
Y835000D02*
D03*
Y1089000D02*
D03*
Y2613000D02*
D03*
Y2359000D02*
D03*
Y2105000D02*
D03*
Y1851000D02*
D03*
Y1597000D02*
D03*
Y1343000D02*
D03*
D21*
X909501Y1489207D02*
D03*
Y2251207D02*
D03*
X1150801Y1489207D02*
D03*
Y2251207D02*
D03*
%TF.MD5,6f3466a74ae664870e048c31cd5f1e22*%
M02*
