<?xml version="1.0" encoding="UTF-8" standalone="no"?>
<!DOCTYPE svg PUBLIC "-//W3C//DTD SVG 1.1//EN" "http://www.w3.org/Graphics/SVG/1.1/DTD/svg11.dtd">
<!-- Generated by Microsoft Visio, SVG Export arduino_case.svg Page-1 -->
<svg xmlns="http://www.w3.org/2000/svg" xmlns:xlink="http://www.w3.org/1999/xlink" xmlns:ev="http://www.w3.org/2001/xml-events"
		xmlns:v="http://schemas.microsoft.com/visio/2003/SVGExtensions/" width="11.6929in" height="8.26772in"
		viewBox="0 0 841.89 595.276" xml:space="preserve" color-interpolation-filters="sRGB" class="st9">
	<v:documentProperties v:langID="1033" v:metric="true" v:viewMarkup="false">
		<v:userDefs>
			<v:ud v:nameU="msvSubprocessMaster" v:prompt="" v:val="VT4(Rectangle)"/>
			<v:ud v:nameU="msvNoAutoConnect" v:val="VT0(1):26"/>
		</v:userDefs>
	</v:documentProperties>

	<style type="text/css">
	<![CDATA[
		.st1 {fill:none;stroke:#000000;stroke-width:0.25}
		.st2 {fill:none;stroke:none;stroke-width:0.25}
		.st3 {fill:#000000;font-family:Calibri;font-size:0.833336em}
		.st4 {fill:#000000;font-family:Calibri;font-size:0.499992em}
		.st5 {font-size:1em}
		.st6 {fill:#000000;font-family:Calibri;font-size:0.666664em;font-weight:bold}
		.st7 {fill:#000000;font-family:Calibri;font-size:0.75em;font-weight:bold}
		.st8 {fill:#ffffff;stroke:#000000;stroke-width:0.75}
		.st9 {fill:none;fill-rule:evenodd;font-size:12px;overflow:visible;stroke-linecap:square;stroke-miterlimit:3}
	]]>
	</style>

	<g v:mID="0" v:index="1" v:groupContext="foregroundPage">
		<v:userDefs>
			<v:ud v:nameU="msvThemeOrder" v:val="VT0(0):26"/>
		</v:userDefs>
		<title>Page-1</title>
		<v:pageProperties v:drawingScale="0.0393701" v:pageScale="0.0393701" v:drawingUnits="24" v:shadowOffsetX="8.50394"
				v:shadowOffsetY="-8.50394"/>
		<g id="shape1-1" v:mID="1" v:groupContext="shape" transform="translate(226.772,-184.252)">
			<title>Rectangle</title>
			<v:userDefs>
				<v:ud v:nameU="visVersion" v:val="VT0(15):26"/>
			</v:userDefs>
			<rect x="0" y="396.85" width="113.386" height="198.425" class="st1"/>
		</g>
		<g id="shape2-3" v:mID="2" v:groupContext="shape" transform="translate(233.858,-184.252)">
			<title>Sheet.2</title>
			<desc>USB</desc>
			<v:textBlock v:margins="rect(4,4,4,4)" v:tabSpace="42.5197"/>
			<v:textRect cx="21.2598" cy="588.189" width="42.52" height="14.1732"/>
			<rect x="0" y="581.102" width="42.5197" height="14.1732" class="st2"/>
			<text x="13.03" y="591.19" class="st3" v:langID="1042"><v:paragraph v:horizAlign="1"/><v:tabList/>USB</text>		</g>
		<g id="shape4-6" v:mID="4" v:groupContext="shape" transform="translate(340.157,809.291) rotate(180)">
			<title>Sheet.4</title>
			<desc>DB25</desc>
			<v:textBlock v:margins="rect(4,4,4,4)" v:tabSpace="42.5197" v:verticalText="true"/>
			<v:textRect cx="8.21253" cy="507.402" width="16.43" height="175.748"/>
			<rect x="0" y="419.528" width="16.4251" height="175.748" class="st2"/>
			<text x="8.21" y="496.54" writing-mode="tb-rl" class="st3" v:langID="1042"><v:paragraph v:horizAlign="1"/><v:tabList/>DB25</text>		</g>
		<g id="shape28-9" v:mID="28" v:groupContext="shape" transform="translate(233.858,-186.52)">
			<title>Rectangle.28</title>
			<v:userDefs>
				<v:ud v:nameU="visVersion" v:val="VT0(15):26"/>
			</v:userDefs>
			<rect x="0" y="450.709" width="56.6929" height="144.567" class="st1"/>
		</g>
		<g id="group29-11" transform="translate(240.945,-314.646)" v:mID="29" v:groupContext="group">
			<title>Sheet.29</title>
			<g id="shape24-12" v:mID="24" v:groupContext="shape" transform="translate(4.25197,-4.25197)">
				<title>Circle.24</title>
				<v:userDefs>
					<v:ud v:nameU="visVersion" v:val="VT0(15):26"/>
				</v:userDefs>
				<path d="M0 592.44 A2.83465 2.83465 0 0 1 5.67 592.44 A2.83465 2.83465 0 1 1 0 592.44 Z" class="st1"/>
			</g>
			<g id="shape25-14" v:mID="25" v:groupContext="shape">
				<title>Square</title>
				<v:userDefs>
					<v:ud v:nameU="visVersion" v:val="VT0(15):26"/>
				</v:userDefs>
				<rect x="0" y="581.102" width="14.1732" height="14.1732" class="st1"/>
			</g>
		</g>
		<g id="shape30-16" v:mID="30" v:groupContext="shape" transform="translate(262.205,960.364) rotate(180)">
			<title>Sheet.30</title>
			<desc>ARDUINO MICRO</desc>
			<v:textBlock v:margins="rect(4,4,4,4)" v:tabSpace="42.5197" v:verticalText="true"/>
			<v:textRect cx="6.23623" cy="577.687" width="12.48" height="35.178"/>
			<rect x="0" y="560.098" width="12.4725" height="35.178" class="st2"/>
			<text x="9.84" y="565.87" writing-mode="tb-rl" class="st4" v:langID="1042"><v:paragraph v:horizAlign="1"/><v:tabList/>ARDUINO <v:newlineChar/><tspan
						dx="-1.2em" y="94.86em 95.715em 95.967em 96.5em 97.043em" class="st5">MICRO</tspan></text>		</g>
		<g id="shape11-20" v:mID="11" v:groupContext="shape" transform="translate(250.157,-370.488)">
			<title>Sheet.11</title>
			<desc>5V</desc>
			<v:textBlock v:margins="rect(4,4,4,4)" v:tabSpace="42.5197"/>
			<v:textRect cx="12.0472" cy="591.591" width="24.1" height="7.37008"/>
			<rect x="0" y="587.906" width="24.0945" height="7.37008" class="st2"/>
			<text x="8.82" y="593.39" class="st4" v:langID="1042"><v:paragraph v:horizAlign="1"/><v:tabList/>5V</text>		</g>
		<g id="shape12-23" v:mID="12" v:groupContext="shape" transform="translate(250.157,-332.787)">
			<title>Sheet.12</title>
			<desc>GND</desc>
			<v:textBlock v:margins="rect(4,4,4,4)" v:tabSpace="42.5197"/>
			<v:textRect cx="12.0472" cy="591.591" width="24.1" height="7.37008"/>
			<rect x="0" y="587.906" width="24.0945" height="7.37008" class="st2"/>
			<text x="6.37" y="593.39" class="st4" v:langID="1042"><v:paragraph v:horizAlign="1"/><v:tabList/>GND</text>		</g>
		<g id="shape13-26" v:mID="13" v:groupContext="shape" transform="translate(265.465,-364.535)">
			<title>Sheet.13</title>
			<desc>OFF</desc>
			<v:textBlock v:margins="rect(4,4,4,4)" v:tabSpace="42.5197"/>
			<v:textRect cx="12.0472" cy="591.591" width="24.1" height="7.37008"/>
			<rect x="0" y="587.906" width="24.0945" height="7.37008" class="st2"/>
			<text x="5.67" y="593.99" class="st6" v:langID="1042"><v:paragraph v:horizAlign="1"/><v:tabList/>OFF</text>		</g>
		<g id="shape14-29" v:mID="14" v:groupContext="shape" transform="translate(234.709,-364.535)">
			<title>Sheet.14</title>
			<desc>OFF</desc>
			<v:textBlock v:margins="rect(4,4,4,4)" v:tabSpace="42.5197"/>
			<v:textRect cx="12.0472" cy="591.591" width="24.1" height="7.37008"/>
			<rect x="0" y="587.906" width="24.0945" height="7.37008" class="st2"/>
			<text x="5.67" y="593.99" class="st6" v:langID="1042"><v:paragraph v:horizAlign="1"/><v:tabList/>OFF</text>		</g>
		<g id="shape16-32" v:mID="16" v:groupContext="shape" transform="translate(236.126,-351.78)">
			<title>Sheet.16</title>
			<desc>D6</desc>
			<v:textBlock v:margins="rect(4,4,4,4)" v:tabSpace="42.5197"/>
			<v:textRect cx="12.0472" cy="591.591" width="24.1" height="7.37008"/>
			<rect x="0" y="587.906" width="24.0945" height="7.37008" class="st2"/>
			<text x="8.68" y="593.39" class="st4" v:langID="1042"><v:paragraph v:horizAlign="1"/><v:tabList/>D6</text>		</g>
		<g id="shape17-35" v:mID="17" v:groupContext="shape" transform="translate(263.622,-351.78)">
			<title>Sheet.17</title>
			<desc>D7</desc>
			<v:textBlock v:margins="rect(4,4,4,4)" v:tabSpace="42.5197"/>
			<v:textRect cx="12.0472" cy="591.591" width="24.1" height="7.37008"/>
			<rect x="0" y="587.906" width="24.0945" height="7.37008" class="st2"/>
			<text x="8.68" y="593.39" class="st4" v:langID="1042"><v:paragraph v:horizAlign="1"/><v:tabList/>D7</text>		</g>
		<g id="shape18-38" v:mID="18" v:groupContext="shape" transform="translate(235.559,-339.024)">
			<title>Sheet.18</title>
			<desc>ON</desc>
			<v:textBlock v:margins="rect(4,4,4,4)" v:tabSpace="42.5197"/>
			<v:textRect cx="12.0472" cy="591.591" width="24.1" height="7.37008"/>
			<rect x="0" y="587.906" width="24.0945" height="7.37008" class="st2"/>
			<text x="6.71" y="593.99" class="st6" v:langID="1042"><v:paragraph v:horizAlign="1"/><v:tabList/>ON</text>		</g>
		<g id="shape19-41" v:mID="19" v:groupContext="shape" transform="translate(264.047,-339.024)">
			<title>Sheet.19</title>
			<desc>ON</desc>
			<v:textBlock v:margins="rect(4,4,4,4)" v:tabSpace="42.5197"/>
			<v:textRect cx="12.0472" cy="591.591" width="24.1" height="7.37008"/>
			<rect x="0" y="587.906" width="24.0945" height="7.37008" class="st2"/>
			<text x="6.71" y="593.99" class="st6" v:langID="1042"><v:paragraph v:horizAlign="1"/><v:tabList/>ON</text>		</g>
		<g id="shape20-44" v:mID="20" v:groupContext="shape" transform="translate(236.693,819.213) rotate(180)">
			<title>Sheet.20</title>
			<desc>LED</desc>
			<v:textBlock v:margins="rect(4,4,4,4)" v:tabSpace="42.5197" v:verticalText="true"/>
			<v:textRect cx="2.83465" cy="579.685" width="5.67" height="31.1811"/>
			<rect x="0" y="564.094" width="5.66929" height="31.1811" class="st2"/>
			<text x="2.83" y="572.75" writing-mode="tb-rl" class="st7" v:langID="1042"><v:paragraph v:horizAlign="1"/><v:tabList/>LED</text>		</g>
		<g id="shape21-47" v:mID="21" v:groupContext="shape" transform="translate(293.386,819.213) rotate(180)">
			<title>Sheet.21</title>
			<desc>ECHO</desc>
			<v:textBlock v:margins="rect(4,4,4,4)" v:tabSpace="42.5197" v:verticalText="true"/>
			<v:textRect cx="2.83465" cy="579.685" width="5.67" height="31.1811"/>
			<rect x="0" y="564.094" width="5.66929" height="31.1811" class="st2"/>
			<text x="2.83" y="569.23" writing-mode="tb-rl" class="st7" v:langID="1042"><v:paragraph v:horizAlign="1"/><v:tabList/>ECHO</text>		</g>
		<g id="group27-50" transform="translate(255.685,-341.291)" v:mID="27" v:groupContext="group">
			<title>Sheet.27</title>
			<g id="shape5-51" v:mID="5" v:groupContext="shape" transform="translate(-2.2482E-15,-25.5118)">
				<title>Circle</title>
				<v:userDefs>
					<v:ud v:nameU="visVersion" v:val="VT0(15):26"/>
				</v:userDefs>
				<path d="M0 593.86 A1.41732 1.41732 0 0 1 2.83 593.86 A1.41732 1.41732 0 1 1 0 593.86 Z" class="st8"/>
			</g>
			<g id="shape6-53" v:mID="6" v:groupContext="shape" transform="translate(-2.2482E-15,-12.7559)">
				<title>Circle.6</title>
				<v:userDefs>
					<v:ud v:nameU="visVersion" v:val="VT0(15):26"/>
				</v:userDefs>
				<path d="M0 593.86 A1.41732 1.41732 0 0 1 2.83 593.86 A1.41732 1.41732 0 1 1 0 593.86 Z" class="st8"/>
			</g>
			<g id="shape7-55" v:mID="7" v:groupContext="shape">
				<title>Circle.7</title>
				<v:userDefs>
					<v:ud v:nameU="visVersion" v:val="VT0(15):26"/>
				</v:userDefs>
				<path d="M0 593.86 A1.41732 1.41732 0 0 1 2.83 593.86 A1.41732 1.41732 0 1 1 0 593.86 Z" class="st8"/>
			</g>
			<g id="shape8-57" v:mID="8" v:groupContext="shape" transform="translate(9.63781,-25.5118)">
				<title>Circle.8</title>
				<v:userDefs>
					<v:ud v:nameU="visVersion" v:val="VT0(15):26"/>
				</v:userDefs>
				<path d="M0 593.86 A1.41732 1.41732 0 0 1 2.83 593.86 A1.41732 1.41732 0 1 1 0 593.86 Z" class="st8"/>
			</g>
			<g id="shape9-59" v:mID="9" v:groupContext="shape" transform="translate(9.63781,-12.7559)">
				<title>Circle.9</title>
				<v:userDefs>
					<v:ud v:nameU="visVersion" v:val="VT0(15):26"/>
				</v:userDefs>
				<path d="M0 593.86 A1.41732 1.41732 0 0 1 2.83 593.86 A1.41732 1.41732 0 1 1 0 593.86 Z" class="st8"/>
			</g>
			<g id="shape10-61" v:mID="10" v:groupContext="shape" transform="translate(9.63781,0)">
				<title>Circle.10</title>
				<v:userDefs>
					<v:ud v:nameU="visVersion" v:val="VT0(15):26"/>
				</v:userDefs>
				<path d="M0 593.86 A1.41732 1.41732 0 0 1 2.83 593.86 A1.41732 1.41732 0 1 1 0 593.86 Z" class="st8"/>
			</g>
		</g>
		<g id="shape42-63" v:mID="42" v:groupContext="shape" transform="translate(253.701,-340.157)">
			<title>Rectangle.42</title>
			<v:userDefs>
				<v:ud v:nameU="visVersion" v:val="VT0(15):26"/>
			</v:userDefs>
			<rect x="0" y="564.094" width="7.08661" height="31.1811" class="st1"/>
		</g>
		<g id="shape43-65" v:mID="43" v:groupContext="shape" transform="translate(263.055,-340.157)">
			<title>Rectangle.43</title>
			<v:userDefs>
				<v:ud v:nameU="visVersion" v:val="VT0(15):26"/>
			</v:userDefs>
			<rect x="0" y="564.094" width="7.08661" height="31.1811" class="st1"/>
		</g>
		<g id="shape44-67" v:mID="44" v:groupContext="shape" transform="translate(297.638,-184.252)">
			<title>Sheet.44</title>
			<desc>© EPFL CNBI</desc>
			<v:textBlock v:margins="rect(4,4,4,4)" v:tabSpace="42.5197"/>
			<v:textRect cx="21.2598" cy="588.189" width="42.52" height="14.1732"/>
			<rect x="0" y="581.102" width="42.5197" height="14.1732" class="st2"/>
			<text x="5.82" y="589.99" class="st4" v:langID="1042"><v:paragraph v:horizAlign="1"/><v:tabList/>© EPFL CNBI</text>		</g>
		<g id="shape45-70" v:mID="45" v:groupContext="shape" transform="translate(231.732,-301.89)">
			<title>Sheet.45</title>
			<desc>RESET</desc>
			<v:textBlock v:margins="rect(4,4,4,4)" v:tabSpace="42.5197"/>
			<v:textRect cx="16.6535" cy="588.189" width="33.31" height="14.1732"/>
			<rect x="0" y="581.102" width="33.3071" height="14.1732" class="st2"/>
			<text x="5.38" y="590.89" class="st7" v:langID="1042"><v:paragraph v:horizAlign="1"/><v:tabList/>RESET</text>		</g>
	</g>
</svg>
